<?xml version="1.0" encoding="UTF-8"?>
<svg id="Layer_1" data-name="Layer 1" xmlns="http://www.w3.org/2000/svg" viewBox="0 0 407.01 365.93">
  <path d="m233.31,207.72c-.29-2.19-1.19-4.61-2.71-7.28-2.85-5.14-9.61-7.7-20.26-7.7s-17.6,1.71-20.83,5.14c-3.14,3.33-4.76,8.08-4.85,14.27v.57c-8.94-13.51-19.69-20.26-32.24-20.26-19.4,0-33.86,8.27-43.37,24.82-2.09-2.85-4.61-5.85-7.56-8.99s-7.66-6.56-14.12-10.27c-6.47-3.71-13.13-5.56-19.97-5.56-15.22,0-27.96,5.85-38.23,17.55-10.27,11.7-15.41,31.05-15.41,58.07v49.93c0,4.38.14,7.66.43,9.84.29,2.19,1.19,4.71,2.71,7.56,2.47,5.14,9.8,7.7,21.97,7.7s19.31-2.66,21.97-7.99c1.33-2.85,2.14-5.37,2.43-7.56.29-2.19.43-5.47.43-9.84v-49.93c0-16.55,5.9-24.82,17.69-24.82,6.66,0,11.18,2.19,13.55,6.56,2.38,4.38,3.57,10.56,3.57,18.55v49.93c0,4.57.14,7.89.43,9.99s1.19,4.57,2.71,7.42c2.66,5.14,10.08,7.7,22.26,7.7s19.31-2.66,21.97-7.99c1.33-2.85,2.14-5.37,2.43-7.56.29-2.19.43-5.47.43-9.84v-49.93c0-16.55,5.9-24.82,17.69-24.82s17.12,8.27,17.12,24.82v50.5c0,4.38.14,7.66.43,9.84.29,2.19,1.19,4.71,2.71,7.56,2.85,4.95,10.27,7.42,22.26,7.42s19.31-2.57,21.97-7.7c1.33-2.85,2.14-5.33,2.43-7.42s.43-5.42.43-9.99v-100.44c0-4.38-.14-7.66-.43-9.84Z"/>
  <path d="m389.34,177.81c-2.62-24.35-12.74-45.13-30.34-62.39-7.89-7.75-16.31-13.98-25.25-18.78-14.6-7.85-30.63-11.75-48.08-11.75-13.13,0-25.87,2.66-38.23,7.99-12.36,5.33-23.3,12.65-32.81,21.97-9.51,9.32-17.12,20.88-22.83,34.67-5.71,13.79-8.56,28.58-8.56,44.37,0,6.28.48,12.36,1.43,18.26,3.47,21.3,13.13,40.14,28.96,56.5,6.28,6.52,12.98,11.98,20.12,16.45,15.84,9.94,33.72,14.93,53.64,14.93,28.91,0,53.26-10.6,73.05-31.81,19.78-21.21,29.67-46.89,29.67-77.04,0-4.57-.24-9.04-.76-13.36Zm-102.53,71.71c-13.51,0-25.73-5.28-36.66-15.84-10.94-10.56-16.41-24.3-16.41-41.23s5.42-30.67,16.26-41.23c10.84-10.56,23.02-15.84,36.52-15.84s25.73,5.23,36.67,15.69c10.08,9.65,15.55,22.26,16.31,37.76.05,1.28.1,2.57.1,3.9,0,17.31-5.42,31.1-16.26,41.37-4.9,4.66-10.08,8.23-15.5,10.75-6.61,3.14-13.6,4.66-21.02,4.66Z"/>
  <path d="m389.72,44.65c-.29-2.19-1.09-4.71-2.52-7.56-1.43-2.9-3.95-4.9-7.51-6.04-3.61-1.19-8.42-1.76-14.41-1.81-5.99-.05-10.79.52-14.41,1.62-3.66,1.14-6.18,3.09-7.61,5.8-1.43,2.76-2.33,5.23-2.62,7.42s-.48,5.47-.48,9.84l-.19,35.76v.14c-.05,4.76,1.07,21.46-6.23,10.8-2.12-3.1-7.32,2.47-11.32,1.14-4.61-1.57-9.75-2.33-15.36-2.38-16.93-.1-32.53,7.32-46.75,22.26-8.66,9.08-14.69,19.07-18.17,30.01,2.33-3.85,5.14-7.42,8.46-10.65,10.84-10.56,23.02-15.84,36.52-15.84s25.73,5.23,36.67,15.69c10.94,10.46,16.41,24.35,16.41,41.66,0,3.61-.24,7.04-.71,10.32.05,1.28.1,2.57.1,3.9,0,17.31-5.42,31.1-16.26,41.37-4.9,4.66-10.08,8.23-15.5,10.75,8.18-.1,15.31-1.81,21.35-5.09,4.95-2.66,11.18-2.81,15.41.86,3.71,3.19,9.42,4.85,17.12,4.9h.05c4.33,0,8.27-2.33,10.7-5.9,8.56-12.75,14.08-26.82,16.6-42.28.14-.71.19-1.47.19-2.24l.09-17.31.14-18.31.62-109c0-4.38-.1-7.66-.38-9.84Z"/>
</svg>