<svg width="28" height="27" viewBox="0 0 28 27" fill="none" xmlns="http://www.w3.org/2000/svg">
<path d="M26.75 25.875L18.25 17.625M21.0833 10.75C21.0833 12.014 20.8268 13.2656 20.3285 14.4333C19.8301 15.6011 19.0997 16.6621 18.1788 17.5559C17.258 18.4497 16.1648 19.1586 14.9616 19.6423C13.7585 20.126 12.4689 20.375 11.1667 20.375C9.86439 20.375 8.57487 20.126 7.37172 19.6423C6.16858 19.1586 5.07537 18.4497 4.15452 17.5559C3.23368 16.6621 2.50322 15.6011 2.00486 14.4333C1.5065 13.2656 1.25 12.014 1.25 10.75C1.25 8.19729 2.29479 5.74913 4.15452 3.9441C6.01426 2.13906 8.5366 1.125 11.1667 1.125C13.7967 1.125 16.3191 2.13906 18.1788 3.9441C20.0385 5.74913 21.0833 8.19729 21.0833 10.75Z" stroke="black" stroke-width="2" stroke-linecap="round" stroke-linejoin="round"/>
</svg>
